<?xml version="1.0" encoding="UTF-8"?>
<svg width="144px" height="144px" viewBox="0 0 144 144" version="1.1" xmlns="http://www.w3.org/2000/svg" xmlns:xlink="http://www.w3.org/1999/xlink">
    <!-- Generator: Sketch 47.1 (45422) - http://www.bohemiancoding.com/sketch -->
    <title>heads</title>
    <desc>Created with Sketch.</desc>
    <defs>
        <circle id="path-1" cx="65" cy="65" r="65"></circle>
        <filter x="-8.8%" y="-7.3%" width="117.7%" height="117.7%" filterUnits="objectBoundingBox" id="filter-2">
            <feOffset dx="0" dy="2" in="SourceAlpha" result="shadowOffsetOuter1"></feOffset>
            <feGaussianBlur stdDeviation="3.5" in="shadowOffsetOuter1" result="shadowBlurOuter1"></feGaussianBlur>
            <feColorMatrix values="0 0 0 0 0.329411765   0 0 0 0 0.329411765   0 0 0 0 0.329411765  0 0 0 0.25 0" type="matrix" in="shadowBlurOuter1"></feColorMatrix>
        </filter>
    </defs>
    <g id="Page-1" stroke="none" stroke-width="1" fill="none" fill-rule="evenodd">
        <g id="Coin-Flipper" transform="translate(-13.000000, -104.000000)">
            <g id="Group-5" transform="translate(20.000000, 109.000000)">
                <g id="heads">
                    <g id="Group-3">
                        <g id="Group">
                            <g id="Oval">
                                <use fill="black" fill-opacity="1" filter="url(#filter-2)" xlink:href="#path-1"></use>
                                <use fill="#FFFFFF" fill-rule="evenodd" xlink:href="#path-1"></use>
                            </g>
                            <circle id="Oval-2" fill-opacity="0.25" fill="#6DC82A" cx="65.4333333" cy="65.4333333" r="60.2333333"></circle>
                            <circle id="Oval-2-Copy" fill="#FFFFFF" cx="65.4333333" cy="65.4333333" r="58.5"></circle>
                        </g>
                    </g>
                    <g id="Group-2" transform="translate(43.333333, 43.333333)" fill-rule="nonzero">
                        <path d="M35.336634,40.5726107 C35.336634,40.5726107 34.7927582,29.2233398 21.6830654,29.2233398 C8.57337255,29.2233398 7.99669935,40.5746419 7.99669935,40.5746419 C7.99321569,40.6179753 7.78428105,43.3336719 10.2875033,43.3333333 L33.045915,43.3333333 C35.5693595,43.3336719 35.336634,40.5726107 35.336634,40.5726107 Z" id="Shape" fill="#FFA733"></path>
                        <path d="M35.336634,40.5726107 C35.336634,40.5726107 35.2022157,37.7848047 33.4706667,34.9726237 C32.8425033,35.0476953 21.7295425,40.0975521 21.7295425,40.0975521 C21.7295425,40.0975521 10.7981569,34.6337435 9.90013725,34.9379232 C8.13995425,37.7627148 7.99678431,40.5746419 7.99678431,40.5746419 C7.99330065,40.6179753 7.78436601,43.3336719 10.2875882,43.3333333 L33.046,43.3333333 C35.5693595,43.3336719 35.336634,40.5726107 35.336634,40.5726107 Z" id="Shape" fill="#FF3F62"></path>
                        <path d="M17.6431242,43.3333333 L25.8144314,43.3333333 L33.4695621,34.9727083 C32.6123268,33.580625 31.3641569,32.1825326 29.5467059,31.1137565 L21.7287778,40.0976367 L13.6961373,31.1821419 C11.9688366,32.2234115 10.7638301,33.562513 9.92282353,34.9015299 L17.6431242,43.3333333 Z" id="Shape" fill="#6DC82A"></path>
                        <ellipse id="Oval" fill="#FF9811" cx="10.7798039" cy="25.5835091" rx="3.19808497" ry="3.18559245"></ellipse>
                        <ellipse id="Oval" fill="#FFA733" cx="32.5535294" cy="25.5835091" rx="3.19808497" ry="3.18559245"></ellipse>
                        <g id="Group" transform="translate(8.921569, 22.343750)" fill="#EE8700">
                            <path d="M1.85840523,0.0543359375 C1.16787582,0.0543359375 0.529091503,0.27311849 0.00645751634,0.643652344 L0.00645751634,1.97403646 C0.00645751634,3.46488932 0.266797386,4.89624349 0.743039216,6.22620443 C1.09038562,6.3549349 1.46611111,6.4256901 1.8584902,6.4256901 C3.62470588,6.4256901 5.05666013,4.99941406 5.05666013,3.24001302 C5.0564902,1.48069661 3.62462092,0.0543359375 1.85840523,0.0543359375 Z" id="Shape"></path>
                            <path d="M23.6317908,0.0543359375 C24.3223203,0.0543359375 24.9611046,0.27311849 25.4837386,0.643652344 L25.4837386,1.97403646 C25.4837386,3.46488932 25.2233987,4.89624349 24.7471569,6.22620443 C24.3998105,6.3549349 24.024085,6.4256901 23.6317059,6.4256901 C21.8654902,6.4256901 20.4335359,4.99941406 20.4335359,3.24001302 C20.4337059,1.48069661 21.8655752,0.0543359375 23.6317908,0.0543359375 Z" id="Shape"></path>
                        </g>
                        <path d="M21.6666667,8.80733073 L21.6666667,8.80733073 C15.8794575,8.80733073 11.1443987,13.5238086 11.1443987,19.2884961 L11.1443987,24.3178711 C11.1443987,30.082474 15.8793725,34.7990365 21.6666667,34.7990365 L21.6666667,34.7990365 C27.4538758,34.7990365 32.1889346,30.0825586 32.1889346,24.3178711 L32.1889346,19.2884961 C32.1889346,13.5238932 27.4538758,8.80733073 21.6666667,8.80733073 Z" id="Shape" fill="#FFC477"></path>
                        <path d="M15.2783137,24.1522396 L15.2783137,19.1228646 C15.2783137,14.2082552 18.7202549,10.0561263 23.3214052,8.93843099 C22.7819477,8.85261068 22.2293203,8.80741536 21.6665817,8.80741536 L21.6665817,8.80741536 C15.8793725,8.80741536 11.1443137,13.5239779 11.1443137,19.2885807 L11.1443137,24.3179557 C11.1443137,30.0825586 15.8793725,34.7991211 21.6665817,34.7991211 L21.6665817,34.7991211 C22.5199085,34.7991211 23.3499542,34.6958659 24.1455882,34.5025586 C19.1373595,33.7056315 15.2783137,29.3563021 15.2783137,24.1522396 Z" id="Shape" fill="#FFB655"></path>
                        <path d="M26.6235752,25.185638 C25.3166078,23.8209766 23.2146013,23.6682943 21.7294575,24.7586523 C20.2443987,23.6682943 18.1422222,23.8209766 16.8353399,25.185638 C15.4173203,26.6661654 13.0860719,31.5035872 14.5724902,32.9160677 C15.9176928,34.1942318 19.9285752,32.2292513 21.7295425,30.7469466 C23.5304248,32.2292513 27.5413922,34.194401 28.8865948,32.9160677 C30.3727582,31.5035872 28.0414248,26.6661654 26.6235752,25.185638 Z" id="Shape" fill="#3E3D42"></path>
                        <path d="M19.7639085,25.7256966 C20.2833137,25.1833529 20.9283007,24.8331315 21.6102484,24.675625 C20.1336013,23.6780273 18.1077255,23.8572852 16.8353399,25.1859766 C15.4173203,26.6665039 13.0860719,31.5039258 14.5724902,32.9164063 C15.1251176,33.441569 16.127902,33.4186328 17.2422484,33.1073438 C16.3400654,31.3764648 18.4460654,27.1016992 19.7639085,25.7256966 Z" id="Shape" fill="#2D2D30"></path>
                        <path d="M21.7293725,21.803099 C20.6992288,21.803099 19.8563529,22.6425977 19.8563529,23.6688021 L19.8563529,24.8189128 C19.8563529,25.8450326 20.6991438,26.6846159 21.7293725,26.6846159 C22.7595163,26.6846159 23.6023922,25.8451172 23.6023922,24.8189128 L23.6023922,23.6688021 C23.6024771,22.6427669 22.7595163,21.803099 21.7293725,21.803099 Z" id="Shape" fill="#FFA733"></path>
                        <path d="M21.7293725,24.8189128 L21.7293725,23.6688021 C21.7293725,22.9823242 22.107732,22.3808203 22.6658824,22.0568359 C22.3898235,21.8965365 22.0703464,21.803099 21.7293725,21.803099 C20.6992288,21.803099 19.8563529,22.6425977 19.8563529,23.6688867 L19.8563529,24.8189974 C19.8563529,25.8451172 20.6991438,26.6847005 21.7293725,26.6847005 C22.0702614,26.6847005 22.3897386,26.591263 22.6658824,26.4309635 C22.1076471,26.1070638 21.7293725,25.5054753 21.7293725,24.8189128 Z" id="Shape" fill="#FF9811"></path>
                        <g id="Group" transform="translate(16.228758, 21.074219)" fill="#3E3D42">
                            <path d="M0.794784314,1.44032552 C0.607091503,1.44032552 0.423392157,1.36440755 0.290078431,1.23254557 C0.156764706,1.09983724 0.0805490196,0.916686198 0.0805490196,0.728964844 C0.0805490196,0.542089844 0.156679739,0.358092448 0.290078431,0.226230469 C0.42330719,0.0935221354 0.607006536,0.0176041667 0.794784314,0.0176041667 C0.98324183,0.0176041667 1.16711111,0.0934375 1.30033987,0.226230469 C1.43280392,0.358938802 1.50893464,0.542089844 1.50893464,0.728964844 C1.50893464,0.916686198 1.43280392,1.09983724 1.30033987,1.23254557 C1.16719608,1.36440755 0.983326797,1.44032552 0.794784314,1.44032552 Z" id="Shape"></path>
                            <path d="M10.6086797,1.44032552 C10.4209869,1.44032552 10.2372876,1.36440755 10.1039739,1.23254557 C9.97066013,1.09983724 9.89444444,0.916686198 9.89444444,0.728964844 C9.89444444,0.542089844 9.97057516,0.358092448 10.1039739,0.226145833 C10.2372026,0.0934375 10.420902,0.0175195312 10.6086797,0.0175195312 C10.7971373,0.0175195312 10.9810065,0.0933528646 11.1142353,0.226145833 C11.2466993,0.358854167 11.3228301,0.542089844 11.3228301,0.728964844 C11.3228301,0.916686198 11.2466993,1.09983724 11.1142353,1.23254557 C10.9810915,1.36440755 10.7972222,1.44032552 10.6086797,1.44032552 Z" id="Shape"></path>
                        </g>
                        <path d="M28.0105817,5.0363151 L21.7678627,4.41813802 L15.3814641,5.0363151 C13.7677647,7.93626302 12.5208693,11.7453646 11.6180065,15.5228971 L31.7151569,15.5228971 C30.848915,11.7453646 29.6312484,7.93626302 28.0105817,5.0363151 Z" id="Shape" fill="#FF7956"></path>
                        <path d="M21.6099085,0 C16.7229281,0 13.4569542,7.8284375 11.6180915,15.5228125 L19.8563529,15.5228125 C21.1307778,10.1903581 23.0908039,4.79451172 25.8005817,1.98360026 C24.5739085,0.738613281 23.181549,0 21.6099085,0 Z" id="Shape" fill="#FF6243"></path>
                        <path d="M15.3821438,5.0363151 L28.0111765,5.0363151 C26.3307778,2.02930339 24.2168758,0 21.6106732,0 C19.1228301,0 17.0554052,2.02930339 15.3821438,5.0363151 Z" id="Shape" fill="#6DC82A"></path>
                        <path d="M25.8005817,1.9836849 C25.8002418,1.98326172 25.799817,1.98283854 25.7993922,1.98233073 C24.5733137,0.738020833 23.181549,0 21.6106732,0 C19.122915,0 17.0554052,2.02930339 15.3822288,5.0363151 L23.6208301,5.0363151 C24.2848497,3.84329427 25.0105556,2.80304036 25.8005817,1.9836849 Z" id="Shape" fill="#5EAC24"></path>
                        <path d="M41.5779935,9.40544922 L1.75533987,9.40544922 C-0.0499607843,9.40544922 0.058372549,10.8322331 0.058372549,10.8322331 C0.058372549,10.8322331 0.0567581699,16.1239779 6.78914379,18.9012891 C6.78914379,18.9012891 7.83313725,19.3804102 10.0596209,19.3804102 L33.2737974,19.3804102 C35.500281,19.3804102 36.5442745,18.9012891 36.5442745,18.9012891 C43.2765752,16.1239779 43.2750458,10.8322331 43.2750458,10.8322331 C43.2750458,10.8322331 43.3833791,9.40544922 41.5779935,9.40544922 Z" id="Shape" fill="#FF9478"></path>
                        <g id="Group" transform="translate(0.000000, 9.394531)" fill="#FF7956">
                            <path d="M10.1067778,1.43753255 C10.1067778,1.43753255 9.99852941,0.0107486979 11.8037451,0.0107486979 L1.75533987,0.0107486979 C-0.0499607843,0.0107486979 0.058372549,1.43753255 0.058372549,1.43753255 C0.058372549,1.43753255 0.0567581699,6.72936198 6.78914379,9.50667318 C6.78914379,9.50667318 7.83313725,9.98579427 10.0596209,9.98579427 L20.1081961,9.98579427 C17.8817124,9.98579427 16.837719,9.50667318 16.837719,9.50667318 C10.1053333,6.72936198 10.1067778,1.43753255 10.1067778,1.43753255 Z" id="Shape"></path>
                            <path d="M30.8729608,7.99863932 L30.0306797,7.99863932 C29.663366,7.99863932 29.3657255,7.70216146 29.3657255,7.33628255 C29.3657255,6.97040365 29.663366,6.67392578 30.0306797,6.67392578 L30.8729608,6.67392578 C31.2402745,6.67392578 31.537915,6.97040365 31.537915,7.33628255 C31.537915,7.70216146 31.2402745,7.99863932 30.8729608,7.99863932 Z" id="Shape"></path>
                            <path d="M27.8879739,7.99863932 L23.1001503,7.99863932 C22.7328366,7.99863932 22.4351961,7.70216146 22.4351961,7.33628255 C22.4351961,6.97040365 22.7328366,6.67392578 23.1001503,6.67392578 L27.8879739,6.67392578 C28.2552876,6.67392578 28.5529281,6.97040365 28.5529281,7.33628255 C28.5529281,7.70216146 28.2552876,7.99863932 27.8879739,7.99863932 Z" id="Shape"></path>
                        </g>
                    </g>
                </g>
            </g>
        </g>
    </g>
</svg>