<?xml version="1.0" encoding="UTF-8"?>
<svg width="144px" height="144px" viewBox="0 0 144 144" version="1.1" xmlns="http://www.w3.org/2000/svg" xmlns:xlink="http://www.w3.org/1999/xlink">
    <!-- Generator: Sketch 47.1 (45422) - http://www.bohemiancoding.com/sketch -->
    <title>tails</title>
    <desc>Created with Sketch.</desc>
    <defs>
        <circle id="path-1" cx="65" cy="65" r="65"></circle>
        <filter x="-8.8%" y="-7.3%" width="117.7%" height="117.7%" filterUnits="objectBoundingBox" id="filter-2">
            <feOffset dx="0" dy="2" in="SourceAlpha" result="shadowOffsetOuter1"></feOffset>
            <feGaussianBlur stdDeviation="3.5" in="shadowOffsetOuter1" result="shadowBlurOuter1"></feGaussianBlur>
            <feColorMatrix values="0 0 0 0 0.329411765   0 0 0 0 0.329411765   0 0 0 0 0.329411765  0 0 0 0.25 0" type="matrix" in="shadowBlurOuter1"></feColorMatrix>
        </filter>
    </defs>
    <g id="Page-1" stroke="none" stroke-width="1" fill="none" fill-rule="evenodd">
        <g id="Coin-Flipper" transform="translate(-163.000000, -104.000000)">
            <g id="Group-6" transform="translate(170.000000, 109.000000)">
                <g id="tails">
                    <g id="Group-3">
                        <g id="Group">
                            <g id="Oval">
                                <use fill="black" fill-opacity="1" filter="url(#filter-2)" xlink:href="#path-1"></use>
                                <use fill="#FFFFFF" fill-rule="evenodd" xlink:href="#path-1"></use>
                            </g>
                            <circle id="Oval-2" fill-opacity="0.300000012" fill="#F7495B" cx="65.4333333" cy="65.4333333" r="60.2333333"></circle>
                            <circle id="Oval-2-Copy" cx="65.4333333" cy="65.4333333" r="58.5"></circle>
                        </g>
                    </g>
                    <g id="Group-4" transform="translate(44.200000, 43.333333)" fill-rule="nonzero">
                        <g id="Group" fill="#F7495B">
                            <path d="M22.2041691,8.42223958 L27.2078374,0.25094401 C27.3032976,0.0951302083 27.472826,0 27.6556293,0 L30.0193041,0 C30.3094049,0 30.5445463,0.235371094 30.5445463,0.525755208 L30.5445463,11.568138 L22.2041691,8.42223958 Z" id="Shape"></path>
                            <path d="M7.48487154,22.459362 C7.48563252,22.4580924 7.4863935,22.456569 7.48715447,22.4552995 C7.50228943,22.4309245 7.51556423,22.4055339 7.52782439,22.3796354 C7.53129106,22.3723568 7.53450407,22.3649935 7.53763252,22.3575456 C7.54803252,22.3335091 7.55733333,22.3088802 7.56519675,22.2837435 C7.56646504,22.279681 7.56807154,22.2757031 7.56925528,22.2714714 C7.57796423,22.2417643 7.5846439,22.2112956 7.58963252,22.180319 C7.5905626,22.1746484 7.59115447,22.1688932 7.59183089,22.1632227 C7.59546667,22.1367318 7.59766504,22.1100716 7.59842602,22.0830729 C7.59851057,22.0790104 7.59944065,22.0750326 7.59944065,22.0709701 C7.59944065,22.0670768 7.5995252,22.0589518 7.5995252,22.0486263 C7.5995252,22.048457 7.5995252,22.0482878 7.5995252,22.0481185 C7.59901789,21.7852409 7.54828618,19.5088021 5.97382764,17.9132552 C4.98219187,16.9083789 3.62579512,16.3988737 1.94217886,16.3988737 C1.53057561,16.3988737 1.19693008,16.7328451 1.19693008,17.1448503 C1.19693008,17.5568555 1.53057561,17.8908268 1.94217886,17.8908268 C3.20776585,17.8908268 4.20472846,18.2484115 4.90524878,18.9535937 C5.41789268,19.4695312 5.71222114,20.1071745 5.88124228,20.6696615 C5.57423089,20.5359375 5.23035447,20.4092383 4.86322602,20.3119922 C2.96171707,19.8080729 1.3075252,20.3405143 0.205209756,21.8115625 C-0.0418536585,22.1412174 0.0249430894,22.6088281 0.35419187,22.8559635 C0.488377236,22.9565951 0.645222764,23.0052604 0.800884553,23.0052604 C1.02748618,23.0052604 1.25121301,22.9021745 1.39757398,22.7068359 C2.13572033,21.7220182 3.1332748,21.407513 4.44722602,21.745293 C4.6859187,21.8066536 4.9132813,21.8855339 5.1243252,21.9705924 C4.85493984,22.1209049 4.56982764,22.3027018 4.28505366,22.5220768 C3.18764228,23.3672461 1.8795252,24.9389258 1.8795252,27.6272852 C1.8795252,28.0392904 2.21317073,28.3732617 2.62477398,28.3732617 C3.03637724,28.3732617 3.37002276,28.0392904 3.37002276,27.6272852 C3.37002276,23.6892839 6.86306992,22.8258333 7.01966179,22.7892708 C7.04181463,22.7841927 7.06337561,22.7778451 7.08468293,22.7709896 C7.08679675,22.7703125 7.08882602,22.7698893 7.09093984,22.7692122 C7.12137886,22.759056 7.15038049,22.7466146 7.17870569,22.7329036 C7.18107317,22.7317187 7.18360976,22.7311263 7.18597724,22.7299414 C7.1894439,22.7281641 7.19257236,22.7258789 7.19612358,22.7239323 C7.22055935,22.7113216 7.24414959,22.6974414 7.26680976,22.6824609 C7.27086829,22.6797526 7.27518049,22.6772982 7.27923902,22.6744206 C7.30494309,22.6564779 7.32937886,22.637181 7.35246179,22.6164453 C7.35635122,22.6129753 7.35990244,22.609082 7.36379187,22.6055273 C7.38247805,22.5880078 7.40006504,22.5695573 7.41672195,22.5502604 C7.42187967,22.5443359 7.4270374,22.5384115 7.43202602,22.5323177 C7.4508813,22.5088737 7.46889106,22.4848372 7.48487154,22.459362 Z" id="Shape"></path>
                        </g>
                        <path d="M41.544026,11.4647982 L41.544026,16.953151 C41.544026,17.7144466 41.037639,18.3826432 40.3051577,18.5878841 L35.1356813,20.03625 L34.7004033,26.3344792 L34.2651252,32.633724 L33.8289171,38.9319531 L33.5949593,42.3173698 C33.5553886,42.8894206 33.0802862,43.3333333 32.5074407,43.3333333 L28.2989919,43.3333333 C27.6968911,43.3333333 27.2089366,42.8447331 27.2089366,42.2422135 L27.2089366,36.483112 L14.6634927,36.483112 L14.6634927,42.2422135 C14.6634927,42.8449023 14.1753691,43.3333333 13.5734374,43.3333333 L9.07945366,43.3333333 C8.5088065,43.3333333 8.0347187,42.8927214 7.99235772,42.3230404 L7.7404748,38.9319531 L7.27146016,32.633724 L6.80346016,26.3344792 L6.45662439,21.6635352 L20.8435447,21.6635352 C21.6172033,21.6635352 22.2444163,21.0357096 22.2444163,20.2612956 L22.2444163,8.38178385 L34.6024911,8.38178385 C34.9562602,8.38178385 35.3083382,8.43019531 35.6489171,8.52557943 L40.3050732,9.8300651 C41.037639,10.0352214 41.544026,10.703418 41.544026,11.4647982 Z" id="Shape" fill="#FCC854"></path>
                        <polygon id="Shape" fill="#22B573" points="34.2652098 32.633724 33.8289171 38.9319531 27.2089366 38.9319531 27.2089366 36.4830273 14.6634927 36.4830273 14.6634927 38.9319531 7.7404748 38.9319531 7.27146016 32.633724"></polygon>
                        <path d="M35.1356813,20.0329492 L34.7004033,26.3311784 L6.80337561,26.3311784 L6.45653984,21.6602344 L20.8434602,21.6602344 C21.6171187,21.6602344 22.2443317,21.0324089 22.2443317,20.2579948 L22.2443317,20.0330339 L35.1356813,20.0329492 L35.1356813,20.0329492 Z" id="Shape" fill="#F7495B"></path>
                        <ellipse id="Oval" fill="#FFFFFF" cx="33.7609366" cy="13.2728646" rx="2.52052033" ry="2.52298177"></ellipse>
                        <ellipse id="Oval" fill="#333333" cx="34.6871285" cy="13.4180143" rx="1" ry="1"></ellipse>
                    </g>
                </g>
            </g>
        </g>
    </g>
</svg>