<?xml version="1.0" encoding="UTF-8"?>
<svg width="144px" height="144px" viewBox="0 0 144 144" version="1.1" xmlns="http://www.w3.org/2000/svg" xmlns:xlink="http://www.w3.org/1999/xlink">
    <!-- Generator: Sketch 47.1 (45422) - http://www.bohemiancoding.com/sketch -->
    <title>tails</title>
    <desc>Created with Sketch.</desc>
    <defs>
        <circle id="path-1" cx="65" cy="65" r="65"></circle>
        <filter x="-8.8%" y="-7.3%" width="117.7%" height="117.7%" filterUnits="objectBoundingBox" id="filter-2">
            <feOffset dx="0" dy="2" in="SourceAlpha" result="shadowOffsetOuter1"></feOffset>
            <feGaussianBlur stdDeviation="3.5" in="shadowOffsetOuter1" result="shadowBlurOuter1"></feGaussianBlur>
            <feColorMatrix values="0 0 0 0 0.329411765   0 0 0 0 0.329411765   0 0 0 0 0.329411765  0 0 0 0.25 0" type="matrix" in="shadowBlurOuter1"></feColorMatrix>
        </filter>
    </defs>
    <g id="Page-1" stroke="none" stroke-width="1" fill="none" fill-rule="evenodd">
        <g id="Coin-Flipper" transform="translate(-163.000000, -104.000000)">
            <g id="Group-5" transform="translate(20.000000, 109.000000)">
                <g id="tails" transform="translate(150.000000, 0.000000)">
                    <g id="Group-3">
                        <g id="Group">
                            <g id="Oval">
                                <use fill="black" fill-opacity="1" filter="url(#filter-2)" xlink:href="#path-1"></use>
                                <use fill="#FFFFFF" fill-rule="evenodd" xlink:href="#path-1"></use>
                            </g>
                            <g id="Group-4" transform="translate(43.000000, 43.000000)" fill-rule="nonzero">
                                <g id="Group" transform="translate(0.000000, 2.234375)" fill="#E6E7E8">
                                    <path d="M30.3447891,33.4208359 L39.4482344,33.4208359 C40.7051562,33.4208359 41.7241172,32.401875 41.7241172,31.1449531 C41.7241172,29.8880313 40.7051562,28.8690703 39.4482344,28.8690703 C38.1913125,28.8690703 37.1723516,27.8501094 37.1723516,26.5931875 C37.1723516,25.3362656 38.1913125,24.3173047 39.4482344,24.3173047 L41.7241172,24.3173047 C42.9810391,24.3173047 44,23.2983437 44,22.0414219 C44,20.7845859 42.9810391,19.765625 41.7241172,19.765625 L30.3447891,19.765625 L30.3447891,33.4208359 Z" id="Shape"></path>
                                    <path d="M32.7117656,4.5931875 L37.1724375,4.5931875 C38.4293594,4.5931875 39.4483203,3.57422656 39.4483203,2.31730469 C39.4483203,1.06038281 38.4293594,0.041421875 37.1724375,0.041421875 L2.27588281,0.041421875 C1.01896094,0.0415078125 0,1.06038281 0,2.31739062 C0,3.57439844 1.01896094,4.59327344 2.27588281,4.59327344 L4.55176562,4.59327344 C5.8086875,4.59327344 6.82764844,5.61223437 6.82764844,6.86915625 C6.82764844,8.12607813 5.8086875,9.14503906 4.55176562,9.14503906 L3.79310937,9.14503906 C2.5361875,9.14503906 1.51722656,10.164 1.51722656,11.4209219 C1.51722656,12.6778437 2.5361875,13.6968047 3.79310937,13.6968047 L9.86210156,13.6968047 L32.7117656,4.5931875 Z" id="Shape"></path>
                                </g>
                                <path d="M9.86210156,39.4482344 L9.86210156,12.9089297 C9.86210156,5.77869531 15.2955859,0 22,0 C28.7044141,0 34.1378984,5.77869531 34.1378984,12.9089297 L34.1378984,40.2068906" id="Shape" fill="#A5A5A4"></path>
                                <path d="M3.03445312,41.6176406 L3.03445312,43.2414297 C3.0078125,43.6307266 3.29939844,43.9690625 3.6884375,44 L40.3115625,44 C40.7006016,43.9690625 40.9922734,43.6307266 40.9655469,43.2413438 L40.9655469,41.6175547 C28.7995469,36.7021875 15.2004531,36.7021875 3.03445312,41.6176406 L3.03445312,41.6176406 Z" id="Shape" fill="#7F6E5D"></path>
                                <path d="M25.0352266,41.8207969 C25.0188984,41.8207969 25.0025703,41.8204531 24.9859844,41.81925 C22.9973906,41.6925781 21.0026953,41.6925781 19.0141016,41.81925 C18.5959297,41.8460625 18.23525,41.5287812 18.2084375,41.1106094 C18.181625,40.6924375 18.4989062,40.3317578 18.9170781,40.3049453 C20.9703828,40.1745781 23.0297891,40.1745781 25.0830937,40.3049453 C25.4918984,40.3308125 25.8062578,40.6765391 25.7933672,41.0859453 C25.7803906,41.4954375 25.4448047,41.820625 25.0352266,41.8207969 L25.0352266,41.8207969 Z" id="Shape" fill="#CBB292"></path>
                                <g id="Group" transform="translate(12.117188, 11.343750)" fill="#5E5F62">
                                    <path d="M9.8828125,0.035578125 C9.46386719,0.035578125 9.12415625,0.375203125 9.12415625,0.794234375 L9.12415625,7.62179688 C9.12415625,8.04074219 9.46378125,8.38045313 9.8828125,8.38045313 C10.3018437,8.38045313 10.6414687,8.04082813 10.6414687,7.62179688 L10.6414687,0.794234375 C10.6414687,0.375203125 10.3017578,0.035578125 9.8828125,0.035578125 Z" id="Shape"></path>
                                    <path d="M16.710375,0.035578125 C16.5299062,0.0360078125 16.3496953,0.0507890625 16.1715469,0.0800078125 C16.1009922,0.054140625 16.0268281,0.0391015625 15.9517187,0.035578125 C15.5327734,0.035578125 15.1930625,0.375203125 15.1930625,0.794234375 L15.1930625,7.62179688 C15.1930625,8.04074219 15.5326875,8.38045313 15.9517187,8.38045313 C16.37075,8.38045313 16.710375,8.04082813 16.710375,7.62179688 L16.710375,5.34591406 C18.2784766,5.4415625 19.6315625,4.2576875 19.7448281,2.69070313 C19.6315625,1.12380469 18.2784766,-0.06015625 16.710375,0.035578125 L16.710375,0.035578125 Z M16.710375,3.8286875 L16.710375,1.55280469 C17.5327109,1.55280469 18.2276016,2.07401562 18.2276016,2.69070313 C18.2276016,3.30747656 17.5327109,3.8286875 16.710375,3.8286875 Z" id="Shape"></path>
                                    <path d="M4.57247656,2.69070313 C4.459125,1.12380469 3.10603906,-0.06015625 1.53802344,0.0354921875 C1.35755469,0.035921875 1.17734375,0.050703125 0.999195312,0.079921875 C0.928640625,0.0540546875 0.854476562,0.039015625 0.779367187,0.0354921875 C0.360421875,0.0354921875 0.0207109375,0.375117188 0.0207109375,0.794148438 L0.0207109375,7.62171094 C0.0207109375,8.04065625 0.360335937,8.38036719 0.779367187,8.38036719 C1.19839844,8.38036719 1.53802344,8.04074219 1.53802344,7.62171094 L1.53802344,6.41858594 L3.27757031,8.15813281 C3.5743125,8.45117969 4.05203906,8.44963281 4.34689062,8.15478125 C4.64182812,7.85984375 4.64328906,7.38220313 4.35024219,7.08546094 L2.46941406,5.20463281 C3.65414844,4.93195313 4.51326562,3.905 4.57247656,2.69070313 Z M1.53802344,3.8286875 L1.53802344,1.55280469 C2.36035937,1.55280469 3.05525,2.07401562 3.05525,2.69070313 C3.05525,3.30747656 2.36035938,3.8286875 1.53802344,3.8286875 Z" id="Shape"></path>
                                    <path d="M7.38692969,7.08314063 C7.08279688,6.80238281 6.61392187,6.80238281 6.30978906,7.08314063 C6.24275781,7.15678906 6.18870313,7.24135156 6.15011719,7.33313281 C6.11127344,7.42448438 6.09073438,7.52253906 6.08970312,7.62171094 C6.09090625,7.6725 6.09597656,7.72320313 6.10491406,7.77321875 C6.11307812,7.82082813 6.12828906,7.86689063 6.15011719,7.90994531 C6.16678906,7.95832813 6.18982031,8.00430469 6.21860937,8.04667188 C6.24894531,8.08448438 6.27936719,8.12221094 6.30970313,8.16036719 C6.60885156,8.45375781 7.08778125,8.45375781 7.38684375,8.16036719 C7.41717969,8.12221094 7.44760156,8.08439844 7.47759375,8.04667188 C7.50638281,8.00439063 7.52941406,7.95841406 7.54608594,7.90994531 C7.56782812,7.86689063 7.58321094,7.82082813 7.59163281,7.77321875 C7.60039844,7.72311719 7.60546875,7.6725 7.60684375,7.62171094 C7.60564062,7.52245313 7.58501563,7.42439844 7.54608594,7.33313281 C7.50758594,7.2414375 7.45378906,7.156875 7.38692969,7.08314063 Z" id="Shape"></path>
                                    <path d="M13.2055,6.92355469 C13.0222813,6.84019531 12.8119922,6.84019531 12.6287734,6.92355469 C12.5369062,6.96214062 12.4523438,7.01610937 12.3786953,7.08314062 C12.0853047,7.38228906 12.0853047,7.86121875 12.3786953,8.16028125 C12.4524297,8.22714062 12.5369922,8.28102344 12.6286875,8.31960937 C12.8124219,8.40064844 13.0216797,8.40064844 13.2054141,8.31960937 C13.2982266,8.28274219 13.3831328,8.2286875 13.4558359,8.16028125 C13.7492266,7.86113281 13.7492266,7.38220312 13.4558359,7.08314062 C13.3833047,7.01447656 13.2983125,6.96033594 13.2055,6.92355469 L13.2055,6.92355469 Z" id="Shape"></path>
                                    <path d="M8.36558594,13.6907031 L0.779367188,13.6907031 C0.360421875,13.6907031 0.0207109375,13.3510781 0.0207109375,12.9320469 C0.0207109375,12.5130156 0.360335938,12.1733906 0.779367188,12.1733906 L8.36558594,12.1733906 C8.78453125,12.1733906 9.12424219,12.5130156 9.12424219,12.9320469 C9.12424219,13.3510781 8.78453125,13.6907031 8.36558594,13.6907031 Z" id="Shape"></path>
                                    <path d="M12.9172656,13.6907031 L11.4000391,13.6907031 C10.9810937,13.6907031 10.6413828,13.3510781 10.6413828,12.9320469 C10.6413828,12.5130156 10.9810078,12.1733906 11.4000391,12.1733906 L12.9172656,12.1733906 C13.3362109,12.1733906 13.6759219,12.5130156 13.6759219,12.9320469 C13.6759219,13.3510781 13.3362969,13.6907031 12.9172656,13.6907031 Z" id="Shape"></path>
                                    <path d="M18.9862578,13.6907031 L15.9518047,13.6907031 C15.5328594,13.6907031 15.1931484,13.3510781 15.1931484,12.9320469 C15.1931484,12.5130156 15.5327734,12.1733906 15.9518047,12.1733906 L18.9862578,12.1733906 C19.4052031,12.1733906 19.7449141,12.5130156 19.7449141,12.9320469 C19.7449141,13.3510781 19.4052031,13.6907031 18.9862578,13.6907031 Z" id="Shape"></path>
                                    <path d="M18.9862578,19.7596953 L11.4000391,19.7596953 C10.9810937,19.7596953 10.6413828,19.4200703 10.6413828,19.0010391 C10.6413828,18.5820078 10.9810078,18.2423828 11.4000391,18.2423828 L18.9862578,18.2423828 C19.4052031,18.2423828 19.7449141,18.5820078 19.7449141,19.0010391 C19.7449141,19.4200703 19.4052031,19.7596953 18.9862578,19.7596953 Z" id="Shape"></path>
                                    <path d="M8.36558594,19.7596953 L6.84835938,19.7596953 C6.42941406,19.7596953 6.08970312,19.4200703 6.08970312,19.0010391 C6.08970312,18.5820078 6.42932812,18.2423828 6.84835938,18.2423828 L8.36558594,18.2423828 C8.78453125,18.2423828 9.12424219,18.5820078 9.12424219,19.0010391 C9.12424219,19.4200703 8.78453125,19.7596953 8.36558594,19.7596953 Z" id="Shape"></path>
                                    <path d="M3.81382031,19.7596953 L0.779367187,19.7596953 C0.360421875,19.7596953 0.0207109375,19.4200703 0.0207109375,19.0010391 C0.0207109375,18.5820078 0.360335937,18.2423828 0.779367187,18.2423828 L3.81382031,18.2423828 C4.23276562,18.2423828 4.57247656,18.5820078 4.57247656,19.0010391 C4.57247656,19.4200703 4.23285156,19.7596953 3.81382031,19.7596953 Z" id="Shape"></path>
                                    <path d="M3.81382031,16.7252422 L0.779367187,16.7252422 C0.360421875,16.7252422 0.0207109375,16.3856172 0.0207109375,15.9665859 C0.0207109375,15.5475547 0.360335937,15.2079297 0.779367187,15.2079297 L3.81382031,15.2079297 C4.23276562,15.2079297 4.57247656,15.5475547 4.57247656,15.9665859 C4.57247656,16.3856172 4.23285156,16.7252422 3.81382031,16.7252422 Z" id="Shape"></path>
                                    <path d="M18.9862578,16.7252422 L6.84835938,16.7252422 C6.42941406,16.7252422 6.08970312,16.3856172 6.08970312,15.9665859 C6.08970312,15.5475547 6.42932812,15.2079297 6.84835938,15.2079297 L18.9862578,15.2079297 C19.4052031,15.2079297 19.7449141,15.5475547 19.7449141,15.9665859 C19.7449141,16.3856172 19.4052031,16.7252422 18.9862578,16.7252422 Z" id="Shape"></path>
                                </g>
                            </g>
                            <circle id="Oval-2-Copy" stroke="#E6E7E8" stroke-width="0.866666667" cx="65.4333333" cy="65.4333333" r="58.0666667"></circle>
                        </g>
                    </g>
                </g>
            </g>
        </g>
    </g>
</svg>